<?xml version="1.0" standalone="no"?>
<!DOCTYPE svg PUBLIC "-//W3C//DTD SVG 20010904//EN"
 "http://www.w3.org/TR/2001/REC-SVG-20010904/DTD/svg10.dtd">
<svg version="1.0" xmlns="http://www.w3.org/2000/svg"
 width="32.000000pt" height="32.000000pt" viewBox="0 0 32.000000 32.000000"
 preserveAspectRatio="xMidYMid meet">

<g transform="translate(0.000000,32.000000) scale(0.100000,-0.100000)"
fill="#2879c9" stroke="none">
<path d="M98 222 c-84 -84 -98 -103 -98 -131 0 -45 46 -91 91 -91 28 0 47 14
131 98 84 84 98 103 98 131 0 45 -46 91 -91 91 -28 0 -47 -14 -131 -98z m179
56 c34 -32 30 -71 -12 -116 -30 -32 -34 -34 -35 -16 0 11 11 31 25 44 29 27
31 46 8 72 -25 28 -45 22 -91 -25 -45 -46 -51 -70 -25 -99 9 -10 13 -21 9 -26
-13 -12 -46 38 -46 69 0 20 13 42 43 74 50 52 86 59 124 23z m-19 -41 c2 -10
-4 -27 -14 -38 -17 -19 -18 -19 -36 0 -23 25 -23 37 0 50 24 15 46 9 50 -12z
m-58 -58 c20 -36 11 -68 -33 -114 -50 -52 -86 -59 -124 -23 -34 32 -30 71 12
116 30 32 34 34 35 16 0 -11 -11 -31 -25 -44 -29 -27 -31 -46 -8 -72 24 -27
43 -22 90 24 46 45 51 63 28 94 -8 10 -15 22 -15 26 0 13 30 -4 40 -23z m-70
-88 c0 -15 -39 -34 -56 -27 -19 7 -18 35 3 58 16 18 17 18 35 -1 10 -11 18
-25 18 -30z"/>
</g>
</svg>
